#!OML:ASF I:\Actors\actors\Patient Classification 2\Patient 1\Session 1\actor1.ASF
:FULLY-SPECIFIED
:DEGREES
366
root -1.47853 18.6526 6.15792 3.61477 16.2562 -6.64696
lowerback 2.65628 3.90703 -12.4889
upperback -2.56833 4.33803 -9.02721
thorax -4.45309 2.39273 -2.87048
lowerneck -14.8545 5.17866 6.08404
upperneck 27.3937 3.92776 7.29309
head 11.4132 3.39426 2.22496
rclavicle -7.15625e-015 5.08889e-014
rhumerus 76.5268 50.2937 -7.64176
rradius 118.86
rwrist -44.7809
rhand 2.81065 -32.7169
rfingers 7.12502
rthumb 28.2796 -60.6022
lclavicle -7.15625e-015 5.08889e-014
lhumerus -42.098 54.6969 8.6311
lradius 37.1295
lwrist 18.7461
lhand -35.318 -15.7072
lfingers 7.12502
lthumb -8.45168 14.1037
rfemur 0 0 0
rtibia 0
rfoot 0 0
rtoes 0
lfemur -12.2348 -20.814 -2.1529
ltibia 23.5781
lfoot -23.1471 17.1012
ltoes -56.9435
367
root -1.47786 18.6523 6.15917 3.66121 15.9662 -6.53468
lowerback 2.6934 3.8708 -12.4789
upperback -2.73307 4.25808 -9.04745
thorax -4.64589 2.3622 -2.90674
lowerneck -14.9576 5.05974 5.95973
upperneck 27.2539 3.74343 7.42828
head 11.3758 3.31178 2.26657
rclavicle 5.36719e-014 3.49861e-014
rhumerus 75.5562 50.3378 -8.16482
rradius 119.513
rwrist -44.6689
rhand 2.42449 -32.3679
rfingers 7.12502
rthumb 27.9105 -60.3138
lclavicle 5.36719e-014 3.49861e-014
lhumerus -39.8762 56.3809 9.7131
lradius 37.0554
lwrist 18.854
lhand -35.1953 -15.8947
lfingers 7.12502
lthumb -8.33328 13.9209
rfemur 0 0 0
rtibia 0
rfoot 0 0
rtoes 0
lfemur -12.0859 -20.8729 -2.322
ltibia 23.5196
lfoot -23.284 17.3739
ltoes -56.8447
368
root -1.47646 18.6532 6.1605 3.71981 15.722 -6.47875
lowerback 2.67715 3.80001 -12.4359
upperback -2.88555 4.14715 -9.04053
thorax -4.79288 2.31427 -2.92291
lowerneck -15.1042 4.95125 5.93599
upperneck 27.1698 3.557 7.50067
head 11.3741 3.23282 2.27252
rclavicle 3.1408e-014 -2.54444e-014
rhumerus 74.7338 50.3708 -8.62197
rradius 120.089
rwrist -44.5132
rhand 2.01119 -31.9738
rfingers 7.12502
rthumb 27.5153 -59.9833
lclavicle 3.1408e-014 -2.54444e-014
lhumerus -37.4469 57.9367 11.1037
lradius 36.9698
lwrist 19.1095
lhand -35.2491 -16.3884
lfingers 7.12502
lthumb -8.38515 13.4251
rfemur 0 0 0
rtibia 0
rfoot 0 0
rtoes 0
lfemur -11.9891 -20.9773 -2.41145
ltibia 23.4598
lfoot -23.4757 17.6165
ltoes -56.782
369
root -1.47628 18.6546 6.16144 3.801 15.5266 -6.455
lowerback 2.61061 3.73536 -12.4065
upperback -3.0246 4.05726 -8.97147
thorax -4.90303 2.27662 -2.86188
lowerneck -15.3087 4.81098 5.88293
upperneck 27.1891 3.33518 7.52686
head 11.424 3.13306 2.26756
rclavicle 5.28767e-014 -7.31528e-014
rhumerus 73.8581 50.3394 -9.04089
rradius 120.663
rwrist -44.4551
rhand 1.6498 -31.6004
rfingers 7.12502
rthumb 27.1696 -59.6643
lclavicle 5.28767e-014 -7.31528e-014
lhumerus -34.7146 59.592 12.9669
lradius 36.8955
lwrist 19.6126
lhand -35.56 -17.0407
lfingers 7.12502
lthumb -8.6852 12.7606
rfemur 0 0 0
rtibia 0
rfoot 0 0
rtoes 0
lfemur -11.9556 -21.0325 -2.44384
ltibia 23.4075
lfoot -23.5924 17.8071
ltoes -56.7379
370
root -1.47281 18.6558 6.16178 3.87699 15.3138 -6.40229
lowerback 2.55793 3.69882 -12.3447
upperback -3.17622 4.00171 -8.91252
thorax -5.0329 2.25556 -2.83397
lowerneck -15.4347 4.65895 5.67966
upperneck 27.1684 3.10933 7.69829
head 11.4359 3.03274 2.33541
rclavicle -3.97569e-015 -1.59028e-014
rhumerus 72.8083 50.3012 -9.56316
rradius 121.287
rwrist -44.4978
rhand 1.46578 -31.2857
rfingers 7.12502
rthumb 26.9936 -59.3771
lclavicle -3.97569e-015 -1.59028e-014
lhumerus -31.8518 61.5551 15.0947
lradius 36.9406
lwrist 20.1958
lhand -35.7921 -17.5799
lfingers 7.12502
lthumb -8.90923 12.212
rfemur 0 0 0
rtibia 0
rfoot 0 0
rtoes 0
lfemur -11.8855 -21.1106 -2.53379
ltibia 23.3423
lfoot -23.7154 18.064
ltoes -56.6449
371
root -1.46784 18.6567 6.16054 3.96089 15.088 -6.30286
lowerback 2.50889 3.66161 -12.3082
upperback -3.34734 3.93981 -8.8855
thorax -5.18563 2.2328 -2.82838
lowerneck -15.4669 4.53913 5.43926
upperneck 27.1568 2.90953 8.0201
head 11.4303 2.95918 2.46613
rclavicle 1.66979e-014 3.18055e-015
rhumerus 71.7038 50.2272 -10.1525
rradius 121.902
rwrist -44.5677
rhand 1.25853 -30.8246
rfingers 7.12502
rthumb 26.7953 -58.9465
lclavicle 1.66979e-014 3.18055e-015
lhumerus -28.8696 63.6904 17.4274
lradius 37.0598
lwrist 20.6821
lhand -35.7424 -17.9539
lfingers 7.12502
lthumb -8.86127 11.84
rfemur 0 0 0
rtibia 0
rfoot 0 0
rtoes 0
lfemur -11.8006 -21.1415 -2.6828
ltibia 23.2518
lfoot -23.8285 18.2885
ltoes -56.5571
372
root -1.46481 18.6567 6.15903 4.04235 14.8844 -6.21561
lowerback 2.42218 3.61138 -12.3328
upperback -3.50468 3.86821 -8.81116
thorax -5.30947 2.20706 -2.73482
lowerneck -15.5127 4.42614 5.20759
upperneck 27.2389 2.71357 8.333
head 11.4652 2.89043 2.59777
rclavicle -6.20208e-014 3.81667e-014
rhumerus 70.7464 50.0598 -10.5493
rradius 122.459
rwrist -44.6163
rhand 0.750176 -30.2253
rfingers 7.12502
rthumb 26.3087 -58.4209
lclavicle -6.20208e-014 3.81667e-014
lhumerus -25.7633 65.8181 20.0707
lradius 37.2442
lwrist 21.1605
lhand -35.4747 -18.2589
lfingers 7.12502
lthumb -8.60291 11.5459
rfemur 0 0 0
rtibia 0
rfoot 0 0
rtoes 0
lfemur -11.7208 -21.1659 -2.80613
ltibia 23.1525
lfoot -23.9595 18.446
ltoes -56.4886
373
root -1.45981 18.6566 6.15781 4.1281 14.7162 -6.13663
lowerback 2.2948 3.57548 -12.3378
upperback -3.66396 3.82478 -8.73167
thorax -5.41194 2.19429 -2.64552
lowerneck -15.4578 4.24115 5.10871
upperneck 27.3023 2.45214 8.40924
head 11.4815 2.77335 2.60642
rclavicle -1.07344e-014 -6.04305e-014
rhumerus 69.7342 49.8848 -10.9483
rradius 122.932
rwrist -44.7272
rhand 0.346864 -29.6417
rfingers 7.12502
rthumb 25.9226 -57.8943
lclavicle -1.07344e-014 -6.04305e-014
lhumerus -22.1618 67.6737 23.3093
lradius 37.4283
lwrist 22.0673
lhand -35.2571 -18.7098
lfingers 7.12502
lthumb -8.39292 11.1034
rfemur 0 0 0
rtibia 0
rfoot 0 0
rtoes 0
lfemur -11.6547 -21.1938 -2.91914
ltibia 23.0605
lfoot -24.1231 18.551
ltoes -56.3492
374
root -1.45037 18.6593 6.15609 4.25448 14.585 -6.0566
lowerback 2.14602 3.71811 -12.1656
upperback -3.9177 4.00954 -8.9418
thorax -5.5818 2.28606 -2.98626
lowerneck -15.0912 3.84802 5.77278
upperneck 27.2397 1.79921 8.19999
head 11.4224 2.51521 2.31392
rclavicle -2.36554e-014 7.95139e-014
rhumerus 67.5919 49.8249 -12.3884
rradius 123.269
rwrist -44.7657
rhand 0.151966 -29.1955
rfingers 7.12502
rthumb 25.7359 -57.4753
lclavicle -2.36554e-014 7.95139e-014
lhumerus -16.1756 68.9268 28.7328
lradius 37.7233
lwrist 23.6849
lhand -35.238 -19.3261
lfingers 7.12502
lthumb -8.37446 10.4878
rfemur 0 0 0
rtibia 0
rfoot 0 0
rtoes 0
lfemur -11.668 -21.1963 -3.02415
ltibia 22.9901
lfoot -24.2448 18.655
ltoes -56.207
